<?xml version="1.0" encoding="UTF-8" standalone="no"?><!DOCTYPE svg PUBLIC "-//W3C//DTD SVG 1.1//EN" "http://www.w3.org/Graphics/SVG/1.1/DTD/svg11.dtd"><svg width="100%" height="100%" viewBox="0 0 686 416" version="1.1" xmlns="http://www.w3.org/2000/svg" xmlns:xlink="http://www.w3.org/1999/xlink" xml:space="preserve" xmlns:serif="http://www.serif.com/" style="fill-rule:evenodd;clip-rule:evenodd;stroke-linejoin:round;stroke-miterlimit:1.41421;"><path id="text4547" d="M181.165,91.893c-7.48,0 -14.227,5.866 -20.24,17.6c-12.174,24.64 -18.259,43.559 -18.259,56.759c0,13.2 5.06,22 15.18,26.4l50.6,21.781c4.106,1.76 6.159,5.28 6.159,10.56c0,9.093 -7.919,13.639 -23.759,13.639c-11.147,0 -22.954,-1.54 -35.42,-4.62c-9.094,-2.2 -14.008,-3.666 -14.741,-4.399l-3.74,-3.74c-1.026,-1.027 -1.76,-1.687 -2.2,-1.98c-1.613,0.733 -2.42,1.833 -2.42,3.3c0,2.493 1.686,4.619 5.06,6.379c16.573,8.654 35.347,12.98 56.32,12.98c7.627,0 14.594,-1.467 20.9,-4.4c7.774,-3.52 11.661,-8.726 11.661,-15.62c0,-8.8 -5.94,-15.767 -17.82,-20.9l-39.381,-16.5c-4.4,-1.76 -7.993,-4.766 -10.78,-9.019c-2.64,-4.4 -3.959,-9.021 -3.959,-13.861c0,-9.24 3.372,-22.146 10.119,-38.72c7.626,-19.066 15.033,-28.599 22.22,-28.599c4.987,0 9.459,3.007 13.419,9.02c3.374,4.987 5.428,10.266 6.162,15.839c1.32,12.76 1.979,24.421 1.979,34.981c0,4.987 1.687,7.479 5.061,7.479c3.226,0 4.839,-4.399 4.839,-13.199c0,-4.547 -0.147,-9.094 -0.44,-13.641c-0.147,-4.693 -0.366,-9.533 -0.66,-14.519c-0.586,-8.507 -4.619,-16.135 -12.099,-22.881c-7.187,-6.747 -15.108,-10.119 -23.761,-10.119Zm314.03,0.88c-2.347,0 -3.814,1.613 -4.401,4.84c-0.44,2.64 -0.367,5.133 0.22,7.479c-0.147,6.307 -0.586,14.374 -1.32,24.201c-0.733,9.68 -1.906,21.193 -3.52,34.54c-0.881,7.758 -1.614,14.86 -2.231,21.452c-0.586,2.329 -1.155,4.535 -1.687,6.488c-0.88,3.227 -1.687,6.013 -2.42,8.36c-4.693,14.813 -7.113,22.293 -7.26,22.44c-2.933,7.333 -5.427,10.999 -7.481,10.999c-4.4,0 -6.599,-4.912 -6.599,-14.739c0,-9.387 1.393,-20.753 4.179,-34.1c0.734,-3.227 1.321,-5.867 1.761,-7.921c0.587,-2.2 1.027,-3.886 1.32,-5.059c0,-2.053 -1.907,-3.081 -5.72,-3.081c-1.907,0 -3.374,0.513 -4.401,1.54c0,2.64 -0.146,6.014 -0.439,10.121c-0.152,2.046 -0.346,4.305 -0.576,6.742c-0.719,2.886 -1.491,5.772 -2.329,8.657c-1.173,4.4 -2.493,8.873 -3.959,13.42c-4.987,15.547 -9.241,23.32 -12.761,23.32c-4.106,0 -6.159,-7.92 -6.159,-23.76c0,-2.053 0.146,-5.352 0.439,-9.899c0.44,-4.693 1.027,-10.708 1.761,-18.041c0.733,-7.48 1.319,-12.247 1.759,-14.3c0.056,-0.262 0.109,-0.478 0.158,-0.655c-1.238,-2.731 -4.804,-4.276 -10.718,-4.624c-1.613,1.173 -2.641,4.839 -3.081,10.999c-0.293,4.987 -1.099,10.266 -2.419,15.84c-1.32,5.573 -3.007,11.66 -5.06,18.26c-1.027,2.64 -2.567,8.214 -4.62,16.72c-1.173,3.814 -2.126,5.72 -2.86,5.72c-2.346,0 -3.52,-5.279 -3.52,-15.839l0,-4.841c0,-2.054 0.073,-4.4 0.22,-7.04c0.147,-2.64 0.22,-4.912 0.22,-6.819l0,-5.061c0,-1.76 0.44,-4.107 1.32,-7.04c1.026,-2.934 1.541,-4.839 1.541,-5.719c0,-2.64 -1.467,-3.961 -4.401,-3.961c-2.786,0 -4.62,1.173 -5.5,3.52c-0.543,1.222 -0.889,3.628 -1.055,7.113c-1.528,7.067 -2.808,11.697 -3.805,13.568c-2.494,5.72 -6.308,8.579 -11.441,8.579c-1.613,0 -3.446,-0.806 -5.499,-2.42c0,-17.746 -0.587,-28.379 -1.761,-31.899c-1.173,-3.374 -3.886,-6.673 -8.14,-9.9c-4.106,-3.227 -8.066,-4.841 -11.88,-4.841c-3.96,0 -6.453,2.494 -7.479,7.481c-0.587,2.493 -1.027,4.473 -1.32,5.94c-0.293,1.466 -0.587,2.567 -0.88,3.3c-0.734,0.733 -1.174,1.759 -1.32,3.079l0,1.541c0,0.587 0.073,1.393 0.22,2.42c0.108,0.757 0.163,1.246 0.191,1.604c-2.327,4.858 -3.492,14.221 -3.492,28.096c0,21.853 5.354,32.78 16.061,32.78c4.253,0 7.846,-2.347 10.78,-7.04c0.733,-1.173 1.539,-2.934 2.419,-5.281c1.027,-2.346 2.127,-5.206 3.301,-8.579c0.586,-2.494 1.099,-4.767 1.539,-6.821c0.44,-2.053 0.807,-3.887 1.1,-5.5c4.4,1.76 6.968,2.641 7.701,2.641c5.573,0 10.046,-3.887 13.42,-11.66c0.562,-1.298 1.07,-2.563 1.549,-3.81c-0.427,5.241 -0.425,11.056 0.011,17.449l0.88,16.5c1.027,6.16 3.813,9.24 8.36,9.24c3.08,0 5.353,-3.153 6.82,-9.46c2.933,-11.88 5.353,-21.34 7.26,-28.38c2.053,-7.186 3.447,-12.099 4.181,-14.739c0.44,9.827 0.879,17.893 1.319,24.199c0.44,6.16 0.953,10.708 1.54,13.641c2.053,10.413 5.794,15.62 11.221,15.62c4.041,0 9.342,-9.619 15.899,-28.817c-0.155,2.618 -0.236,4.896 -0.236,6.816c0,4.84 0.807,9.46 2.42,13.86c2.2,5.28 5.574,7.921 10.121,7.921c4.106,0 7.628,-3.227 10.561,-9.68c0.99,-2.263 3.306,-9.139 6.888,-20.405c-0.214,4.504 -0.331,8.618 -0.331,12.265c0,2.493 0.074,4.766 0.221,6.819c0.147,2.053 0.366,3.814 0.659,5.281c1.027,6.306 2.567,9.46 4.62,9.46c2.347,0 3.52,-1.101 3.52,-3.301c0,-1.613 -0.512,-3.96 -1.539,-7.04c0.587,-5.426 1.026,-9.826 1.32,-13.199c6.16,-4.254 9.973,-6.674 11.44,-7.26c2.493,10.413 4.034,16.28 4.62,17.6c2.787,6.747 7.406,10.119 13.859,10.119c5.188,0 9.953,-5.63 14.297,-16.852c1.075,13.866 5.088,20.813 12.051,20.813c6.014,0 10.928,-6.821 14.741,-20.461c3.52,10.707 7.994,16.061 13.421,16.061c4.4,0 9.679,-9.533 15.839,-28.6c5.427,-16.72 8.14,-27.795 8.14,-33.221c0,-2.2 -0.587,-3.299 -1.76,-3.299c-1.174,0 -2.198,1.686 -3.078,5.06c-8.653,36.08 -15.476,54.12 -20.462,54.12c-2.494,0 -4.325,-2.568 -5.498,-7.701c-0.88,-3.667 -1.175,-7.187 -0.882,-10.56c1.32,-15.547 3.813,-28.673 7.48,-39.38l-7.699,-2.639l-3.961,-7.921c-1.76,-3.373 -5.866,-5.059 -12.32,-5.059c-2.933,0 -6.526,7.626 -10.78,22.879c-2.559,10.125 -4.227,18.045 -5.014,23.781c-1.757,5.71 -3.369,10.397 -4.834,14.059c-3.52,8.36 -7.04,12.541 -10.56,12.541c-3.813,0 -6.674,-3.081 -8.581,-9.241c-1.32,-4.106 -1.979,-8.8 -1.979,-14.08c0,-2.933 0.219,-5.28 0.659,-7.04c3.227,-5.133 5.647,-8.947 7.26,-11.44l2.42,-3.96c3.667,-6.306 5.501,-12.759 5.501,-19.359c0,-3.08 -1.101,-5.72 -3.301,-7.92c-2.053,-2.2 -4.619,-3.301 -7.699,-3.301c-4.107,0 -8.141,4.254 -12.101,12.761c-3.813,8.36 -6.746,14.666 -8.799,18.919c-2.054,4.254 -3.226,6.527 -3.519,6.821c0.44,-7.04 1.025,-14.374 1.758,-22.001c0.88,-7.773 1.907,-15.913 3.08,-24.42c1.76,-13.053 2.861,-21.046 3.301,-23.98c3.08,-13.2 4.62,-21.632 4.62,-25.299c0,-2.053 -0.661,-3.887 -1.981,-5.5c-1.32,-1.76 -3.006,-2.64 -5.059,-2.64l0,0Zm-61.666,73.044c0.328,0.724 0.503,1.526 0.503,2.416c0,-2.815 -0.168,-3.618 -0.503,-2.416Zm33.904,-53.342c0.336,1.155 -0.31,2.121 -1.419,2.252c0.34,0.069 0.667,0.183 0.975,0.348c0.499,0.29 0.835,0.731 1.084,1.239c0.138,0.297 0.223,0.612 0.284,0.932c0.088,0.44 0.044,0.877 -0.046,1.311c-0.144,0.579 -0.484,1.011 -0.912,1.409c-1.024,0.699 -2.102,0.49 -3.014,-0.23c-0.046,-0.039 -0.091,-0.079 -0.136,-0.118c-0.204,0.016 -0.408,0.008 -0.607,-0.011c0.014,0.969 0.029,1.218 -0.644,2.492c-0.001,0.001 -0.005,0.004 -0.006,0.006c0.019,-0.006 0.029,-0.005 0.049,-0.012c0.198,-0.063 0.416,-0.079 0.592,-0.187c0.053,-0.078 0.1,-0.151 0.278,-0.378c-0.044,0.075 -0.121,0.194 -0.183,0.294c0.211,-0.193 0.504,-0.602 0.413,-0.417c-0.019,0.04 -0.332,0.391 -0.501,0.558c-0.439,0.69 -1.14,1.668 -1.601,1.663c-1.246,-0.015 -1.945,-0.214 -2.337,-0.554c0.237,0.319 0.489,0.633 0.773,0.94c1.76,1.907 3.814,2.861 6.161,2.861c2.775,0 4.496,-1.557 5.171,-4.665c0.001,-0.048 0.006,-0.095 0.006,-0.142c-0.003,-0.372 -0.015,-0.742 -0.048,-1.112c-0.033,-0.369 -0.077,-0.737 -0.142,-1.102c-0.065,-0.368 -0.138,-0.734 -0.23,-1.096c-0.093,-0.371 -0.191,-0.742 -0.308,-1.107c-0.113,-0.348 -0.24,-0.693 -0.388,-1.028c-0.087,-0.196 -0.189,-0.385 -0.284,-0.577c-2.64,0.935 -4.059,-1.292 -2.387,-3.044c-0.042,-0.041 -0.08,-0.085 -0.123,-0.125c-0.152,-0.138 -0.314,-0.266 -0.47,-0.4l0,0Zm-8.059,1.336c-1.02,1.325 -1.539,2.599 -1.539,3.822c0,1.783 0.512,3.439 1.528,4.969c-0.207,-0.509 -0.137,-1.183 -0.126,-1.968c0.128,-0.226 0.255,-0.452 0.383,-0.678l0,-1.975c0,-1.988 1.004,-2.982 2.008,-2.982c0.005,0 0.011,0.002 0.016,0.002c-0.006,-0.12 -0.019,-0.239 -0.016,-0.359c0.005,-0.222 0.032,-0.42 0.061,-0.616c-0.452,0.488 -1.205,0.873 -2.295,0.986c-0.112,0.012 -0.059,0.007 -0.163,0.018c-0.129,0.014 -0.258,0.028 -0.386,0.047c-0.093,0.013 -0.087,0.014 0.001,-0.014c1.273,-0.405 1.132,-0.825 0.528,-1.252l0,0Zm3.12,7.044c-0.637,0.944 -0.959,1.661 0.397,1.276c0.043,-0.04 0.088,-0.079 0.123,-0.123c0.03,-0.237 0.06,-0.474 0.09,-0.712c-0.211,-0.13 -0.414,-0.279 -0.609,-0.441l-0.001,0Zm-139.03,37.914c-0.257,-0.017 -0.532,-0.015 -0.825,0.004c-3.52,0.147 -5.5,2.052 -5.94,5.719c-1.173,9.826 -2.2,18.04 -3.08,24.64c-0.88,6.6 -1.539,11.733 -1.979,15.4c-5.72,22 -10.488,33 -14.302,33c-3.813,0 -5.718,-5.94 -5.718,-17.82c0,-3.08 0.146,-6.819 0.439,-11.219c0.293,-4.4 0.733,-9.533 1.32,-15.4l2.42,-22.44c0.293,-2.053 -0.807,-3.081 -3.3,-3.081c-2.787,0 -4.694,3.301 -5.721,9.901l-0.313,4.705c-2.362,9.749 -4.585,18.131 -6.67,25.15c-0.595,1.903 -1.199,3.77 -1.816,5.565c-2.01,6.153 -3.827,11.007 -5.458,14.605c-2.256,4.627 -4.279,6.955 -6.064,6.955c-2.494,0 -4.328,-2.568 -5.501,-7.701c-0.88,-3.667 -1.172,-7.187 -0.879,-10.56c1.32,-15.547 3.813,-28.673 7.48,-39.379l-7.701,-2.64l-3.96,-7.92c-1.76,-3.374 -5.866,-5.06 -12.319,-5.06c-2.933,0 -6.528,7.626 -10.781,22.879c-3.373,13.347 -5.206,22.88 -5.499,28.6c-0.44,21.413 3.666,32.121 12.319,32.121c6.014,0 10.928,-6.821 14.741,-20.461c2.432,7.397 5.319,12.236 8.662,14.523c0,1.319 1.689,1.977 5.061,1.977c1.382,0 2.963,-1.368 4.741,-4.1c3.235,-4.374 6.831,-12.671 10.795,-24.939c0.264,-0.813 0.491,-1.55 0.742,-2.336c-0.289,4.775 -0.439,8.873 -0.439,12.235c0,5.134 0.953,9.607 2.859,13.42c2.347,4.84 5.867,7.261 10.56,7.261c3.52,0 6.528,-2.347 9.021,-7.04c1.32,-2.787 2.42,-5.208 3.3,-7.261c1.027,-2.053 1.833,-3.813 2.42,-5.279c2.2,8.8 3.3,21.046 3.3,36.739c-9.533,2.054 -19.507,6.747 -29.921,14.08c-13.2,9.534 -19.798,19.654 -19.798,30.361c0,3.52 0.659,6.819 1.979,9.899c1.173,3.08 2.859,5.721 5.059,7.921c2.2,2.346 4.841,4.18 7.921,5.5c2.933,1.32 6.159,1.979 9.679,1.979c21.56,0 32.341,-16.792 32.341,-50.379c0,-0.88 -0.073,-2.128 -0.22,-3.741c0,-1.467 -0.074,-3.007 -0.221,-4.62c0,-1.613 -0.073,-3.227 -0.219,-4.84l0,-3.52c6.6,-2.2 11.074,-3.299 13.42,-3.299c1.027,0 2.567,0.073 4.621,0.22c2.2,0.293 4.986,0.733 8.359,1.32c0.44,-0.587 0.66,-1.247 0.66,-1.981c0,-3.373 -3.227,-5.059 -9.68,-5.059c-1.907,0 -5.206,0.586 -9.9,1.759c-2.053,0.587 -3.814,1.028 -5.28,1.321c-1.467,0.44 -2.567,0.732 -3.301,0.879l-0.439,-9.68c-0.44,-8.946 -0.661,-15.547 -0.661,-19.8c-0.146,-12.32 -0.072,-22.146 0.222,-29.48c0.293,-7.333 0.806,-12.393 1.539,-15.18c3.08,-11 4.62,-18.186 4.62,-21.56c0,-1.796 -0.898,-2.751 -2.695,-2.863l0,0Zm191.31,4.844c2.347,0 3.52,1.54 3.52,4.62c0,6.013 -2.86,14.519 -8.58,25.519c-6.16,12.027 -11.806,18.041 -16.939,18.041c0,-3.667 2.786,-12.395 8.36,-26.181c3.226,-8.067 5.426,-13.126 6.599,-15.179c2.347,-4.547 4.693,-6.82 7.04,-6.82Zm-158.864,0.879c4.693,0 7.04,2.567 7.04,7.7c0,1.027 -0.146,2.64 -0.439,4.84c-0.147,2.2 -0.22,3.813 -0.22,4.84c0,1.613 0.146,3.593 0.439,5.94c0.294,2.2 0.734,4.84 1.32,7.92c0.587,3.08 1.027,5.794 1.32,8.141c0.293,2.346 0.441,4.326 0.441,5.939c0,3.96 -1.761,9.754 -5.281,17.381c-2.64,5.867 -4.766,8.799 -6.379,8.799c-6.453,0 -9.68,-7.92 -9.68,-23.76c0,-6.16 1.099,-15.18 3.299,-27.06c2.347,-13.786 5.06,-20.68 8.14,-20.68Zm-107.054,4.18c3.08,0 4.914,3.374 5.501,10.121l2.64,3.52l-2.64,20.24c-0.293,2.64 -0.881,5.645 -1.761,9.019c-0.88,3.226 -1.906,6.746 -3.079,10.56c-3.08,9.68 -6.014,15.327 -8.801,16.941c-2.053,0 -3.739,-1.394 -5.059,-4.181c-1.027,-2.2 -1.541,-4.547 -1.541,-7.04c0,-13.2 1.173,-24.273 3.52,-33.22c1.026,-3.373 1.908,-6.38 2.641,-9.02c0.733,-2.64 1.392,-4.766 1.979,-6.38c1.907,-7.04 4.107,-10.56 6.6,-10.56Zm307.227,0c3.08,0 4.913,3.374 5.5,10.121l2.64,3.52l-2.64,20.24c-0.293,2.64 -0.879,5.645 -1.759,9.019c-0.88,3.226 -1.908,6.746 -3.081,10.56c-3.08,9.68 -6.014,15.327 -8.801,16.941c-2.053,0 -3.739,-1.394 -5.059,-4.181c-1.027,-2.2 -1.54,-4.547 -1.54,-7.04c0,-13.2 1.174,-24.273 3.52,-33.22c1.027,-3.373 1.907,-6.38 2.64,-9.02c0.733,-2.64 1.394,-4.766 1.98,-6.38c1.907,-7.04 4.106,-10.56 6.6,-10.56Zm-240.044,95.7l0,15.841c0,10.413 -1.98,19.873 -5.94,28.38c-4.987,10.706 -12.246,16.059 -21.78,16.059c-2.2,0 -4.253,-0.513 -6.159,-1.54c-2.054,-1.026 -3.814,-2.419 -5.281,-4.179c-1.467,-1.76 -2.567,-3.74 -3.3,-5.94c-0.88,-2.2 -1.32,-4.473 -1.32,-6.82c0,-8.213 3.814,-16.06 11.44,-23.54c8.654,-8.654 19.433,-14.741 32.34,-18.261Z" style="fill:#e84444;fill-rule:nonzero;"/><path id="rect4580" d="M467.111,116.75l-13.792,9.266l9.888,10.808l13.792,-9.266l-9.888,-10.808Z" style="fill:#e84444;"/><path id="path4582" d="M461.212,114.463c-0.02,0.001 -0.04,0.002 -0.06,0.003c-0.443,0.27 -1.024,0.47 -1.758,0.546c-0.112,0.012 -0.059,0.007 -0.163,0.018c-0.129,0.014 -0.258,0.028 -0.386,0.047c-0.093,0.014 -0.087,0.014 0.001,-0.013c0.505,-0.161 0.786,-0.325 0.907,-0.49c-0.079,0.009 -0.158,0.019 -0.237,0.03c-3.027,0.5 -5.66,2.289 -6.885,4.678c-1.225,2.39 -0.864,5.028 0.946,6.9l6.829,-4.695l6.892,-4.629c-1.43,-1.522 -3.651,-2.395 -6.086,-2.395l0,0Z" style="fill:#e84444;fill-rule:nonzero;"/><path id="path4584" d="M472.09,115.121c-0.096,0.069 -0.189,0.139 -0.295,0.206c-0.054,0.035 -0.172,0.103 -0.221,0.132c0.155,-0.088 -0.235,0.152 -0.299,0.189c-0.05,0.027 -0.101,0.054 -0.152,0.081c-0.009,0.005 -0.017,0.01 -0.026,0.014c-1.238,0.652 -2.266,0.631 -2.942,0.259c-0.476,0.21 -0.93,0.455 -1.356,0.731l5.008,5.474l4.925,5.53c2.484,-1.592 3.837,-4.131 3.539,-6.641c-0.298,-2.51 -2.204,-4.621 -4.983,-5.521c-1.008,-0.325 -2.095,-0.48 -3.198,-0.454l0,0Z" style="fill:#e84444;fill-rule:nonzero;"/></svg>
