<?xml version="1.0" encoding="UTF-8" standalone="no"?>
<!DOCTYPE svg PUBLIC "-//W3C//DTD SVG 1.1//EN" "http://www.w3.org/Graphics/SVG/1.1/DTD/svg11.dtd">
<svg width="100%" height="100%" viewBox="0 0 1280 720" version="1.1" xmlns="http://www.w3.org/2000/svg" xmlns:xlink="http://www.w3.org/1999/xlink" xml:space="preserve" xmlns:serif="http://www.serif.com/" style="fill-rule:evenodd;clip-rule:evenodd;stroke-linejoin:round;stroke-miterlimit:1.41421;">
    <g transform="matrix(1,0,0,1,-81.1082,4.96081)">
        <path d="M258.64,318.295C240.939,321.15 224.523,325.29 209.392,330.714C199.971,334.425 189.907,339.35 179.201,345.488C168.495,351.626 159.859,358.121 153.293,364.973C146.156,372.11 142.587,378.677 142.587,384.672C142.587,391.238 147.155,397.805 156.291,404.371C167.139,412.365 178.773,418.075 191.192,421.501C203.611,424.926 215.102,425.997 225.665,424.712C236.228,423.428 245.65,420.359 253.929,415.505C261.923,410.652 268.132,404.442 272.557,396.877C276.982,389.311 278.838,379.605 278.124,367.757C277.411,355.909 273.342,342.99 265.92,329.001C264.492,326.146 262.066,322.577 258.64,318.295ZM317.737,201.386C309.172,190.252 296.325,181.401 279.195,174.835C272.343,172.266 263.778,171.552 253.501,172.694C243.223,173.836 233.516,176.834 224.381,181.687C204.682,191.679 196.26,204.384 199.114,219.8C199.4,221.799 202.826,226.509 209.392,233.932C214.531,239.642 223.239,248.635 235.515,260.911C254.357,279.754 265.206,290.745 268.061,293.885C281.479,292.173 295.183,291.316 309.172,291.316C312.312,291.316 315.024,292.458 317.308,294.742C319.592,297.026 320.734,299.738 320.734,302.878C320.734,306.019 319.592,308.731 317.308,311.015C315.024,313.299 312.312,314.441 309.172,314.441C301.178,314.441 293.041,314.726 284.762,315.297L286.475,317.867C299.608,344.703 304.104,368.185 299.965,388.312C295.825,408.439 284.477,424.07 265.92,435.204C249.647,445.482 229.948,449.622 206.823,447.623C183.698,445.625 162.286,437.488 142.587,423.214C126.885,411.794 119.177,398.804 119.462,384.244C119.462,372.253 125.172,360.405 136.592,348.7C144.871,340.421 155.077,332.712 167.211,325.575C179.344,318.438 190.835,313.013 201.684,309.302C213.675,304.734 226.522,301.023 240.225,298.168L219.67,277.612C206.537,264.765 197.401,255.344 192.263,249.349C182.556,238.785 177.132,230.363 175.99,224.083C173.706,210.093 176.275,197.675 183.698,186.826C191.121,175.977 201.256,167.412 214.103,161.132C225.522,155.136 237.799,151.282 250.931,149.569C264.064,148.142 276.055,149.426 286.903,153.423C308.315,161.132 324.588,172.266 335.723,186.826C337.721,189.395 338.506,192.322 338.078,195.605C337.65,198.888 336.222,201.457 333.795,203.313C331.369,205.169 328.514,205.882 325.231,205.454C321.948,205.026 319.449,203.67 317.737,201.386Z" style="fill:rgb(254,47,47);fill-rule:nonzero;"/>
        <path d="M429.935,326.003C430.221,326.003 430.506,326.146 430.792,326.432C433.075,328.716 434.36,331.57 434.646,334.996C434.931,337.566 434.503,340.563 433.361,343.989C433.361,344.56 432.647,346.273 431.22,349.128L430.792,351.269C429.079,360.405 428.222,365.116 428.222,365.401C427.651,370.255 427.223,375.108 426.937,379.961C426.366,385.386 426.081,388.526 426.081,389.383C426.081,400.802 427.223,409.938 429.507,416.79C432.647,424.498 437.358,429.209 443.639,430.922C449.349,432.349 454.63,430.922 459.483,426.639C464.622,422.072 469.761,414.221 474.9,403.086C478.611,394.807 482.466,383.816 486.463,370.112C491.887,352.982 494.885,343.704 495.456,342.276C496.597,339.136 498.596,336.923 501.451,335.639C504.306,334.354 507.232,334.283 510.23,335.425C513.227,336.567 515.369,338.565 516.653,341.42C517.938,344.275 518.009,347.13 516.867,349.985C516.582,351.127 513.87,360.12 508.731,376.964C504.449,391.238 500.166,403.229 495.884,412.936C489.603,426.925 482.466,437.345 474.472,444.197C463.338,453.904 451.061,456.902 437.643,453.19C423.369,449.193 413.519,439.629 408.095,424.498C407.238,422.5 406.525,420.216 405.954,417.646C403.67,421.643 401.243,425.212 398.674,428.352C389.823,440.343 380.545,447.766 370.838,450.621C357.42,454.618 345.287,450.193 334.438,437.345C326.444,427.924 322.875,413.507 323.732,394.093C324.588,377.535 328.442,360.691 335.294,343.561C342.717,325.004 351.996,311.301 363.13,302.45C378.261,291.031 393.963,289.746 410.236,298.596C419.372,304.02 425.224,309.588 427.794,315.297C428.65,317.867 429.364,321.007 429.935,324.719L429.935,326.003ZM408.095,338.422C407.809,336.424 407.381,332.855 406.81,327.716C406.525,325.718 406.239,324.433 405.954,323.862C406.239,323.291 403.955,321.721 399.102,319.152C391.679,314.869 384.399,315.44 377.262,320.865C369.268,327.145 362.416,337.566 356.706,352.126C350.711,366.401 347.428,380.818 346.857,395.378C346.286,408.796 348.141,417.932 352.424,422.785C356.706,427.639 360.703,429.494 364.415,428.352C368.982,426.925 374.264,422.214 380.259,414.221C385.684,407.083 390.68,398.518 395.248,388.526C399.816,378.819 402.956,370.968 404.669,364.973C404.954,363.831 405.24,362.832 405.525,361.975L405.525,358.978C406.382,351.555 407.238,345.56 408.095,340.992C408.095,340.135 408.238,339.422 408.523,338.851C408.523,338.565 408.38,338.422 408.095,338.422Z" style="fill:rgb(254,47,47);fill-rule:nonzero;"/>
        <path d="M572.11,479.313L560.12,487.878C544.703,499.868 536.281,512.144 534.853,524.706C534.282,528.417 534.782,531.415 536.352,533.699C537.923,535.983 539.707,537.41 541.705,537.981C542.847,538.267 544.275,538.196 545.988,537.767C547.701,537.339 550.056,535.698 553.054,532.843C556.051,529.988 558.835,525.705 561.404,519.995C565.972,510.003 569.541,496.442 572.11,479.313ZM524.148,319.152C517.01,351.983 512.871,376.678 511.729,393.237C510.587,409.795 511.443,421.929 514.298,429.637C515.44,432.492 516.725,434.348 518.152,435.204C519.294,436.061 521.15,436.203 523.719,435.632C527.145,434.776 530.999,431.636 535.282,426.211C539.564,420.501 543.989,412.508 548.557,402.23C553.696,391.381 559.834,374.823 566.971,352.554C568.684,347.13 571.111,338.28 574.251,326.003C575.679,320.865 576.535,317.439 576.821,315.726C577.392,314.298 577.82,313.156 578.106,312.3C578.677,310.587 579.676,309.017 581.103,307.589C583.387,305.591 585.814,304.591 588.383,304.591C592.38,304.306 595.663,305.733 598.233,308.874C598.804,309.73 599.303,310.658 599.732,311.657C600.16,312.657 600.517,313.442 600.802,314.013L600.802,323.006C600.517,325.575 600.231,329.429 599.946,334.568C599.089,345.988 598.661,352.554 598.661,354.267C598.376,361.119 598.304,372.967 598.447,389.811C598.59,406.655 598.518,420.359 598.233,430.922C608.225,420.644 615.862,409.296 621.144,396.877C626.425,384.458 631.493,368.399 636.346,348.7C636.917,345.56 638.559,343.133 641.271,341.42C643.983,339.707 646.909,339.207 650.05,339.921C653.19,340.635 655.617,342.348 657.33,345.06C659.043,347.772 659.471,350.698 658.614,353.839C653.19,377.249 646.909,396.663 639.772,412.079C632.635,427.496 621.5,441.771 606.369,454.903C603.514,457.473 600.374,460.042 596.948,462.611C594.664,491.446 589.668,514 581.96,530.273C576.535,541.693 569.826,550.044 561.832,555.325C553.839,560.607 545.417,562.248 536.566,560.25C528.287,558.537 521.792,553.969 517.082,546.546C512.371,539.123 510.587,530.987 511.729,522.137C514.013,503.009 525.432,485.451 545.988,469.463C550.556,466.037 558.692,460.47 570.397,452.762L574.68,449.764C574.68,446.909 574.822,443.912 575.108,440.771C575.393,429.923 575.536,415.933 575.536,398.804L569.969,412.079C564.545,423.785 558.978,433.206 553.268,440.343C545.559,450.335 537.423,456.188 528.858,457.901C520.008,459.899 512.3,458.9 505.733,454.903C500.023,451.192 495.741,445.339 492.886,437.345C488.889,426.782 487.462,411.651 488.604,391.952C489.746,373.966 494.171,347.986 501.879,314.013C502.45,310.872 504.092,308.446 506.804,306.733C509.516,305.02 512.442,304.52 515.583,305.234C518.723,305.948 521.15,307.66 522.863,310.373C524.576,313.085 525.004,316.011 524.148,319.152Z" style="fill:rgb(254,47,47);fill-rule:nonzero;"/>
        <path d="M689.876,431.778L688.163,430.065C679.027,419.502 671.676,407.012 666.109,392.594C660.541,378.177 657.901,363.974 658.186,349.985C653.618,358.55 650.05,367.257 647.48,376.107C642.627,392.095 641.628,405.656 644.483,416.79C647.337,426.782 653.761,432.92 663.753,435.204C673.746,437.203 682.453,436.061 689.876,431.778ZM705.721,414.649C712.001,403.515 715.427,389.525 715.998,372.681C716.855,352.982 714,337.566 707.434,326.432C705.15,321.864 702.58,319.152 699.725,318.295C697.441,317.153 694.586,317.581 691.161,319.58C690.875,319.58 690.59,319.865 690.304,320.436C689.448,322.149 688.448,324.29 687.306,326.86C681.026,339.422 679.812,353.982 683.666,370.54C687.521,387.099 694.872,401.802 705.721,414.649ZM704.008,295.17L708.29,296.883C715.998,299.738 722.422,305.733 727.561,314.869C736.411,330.286 740.265,349.985 739.123,373.966C738.267,396.235 733.128,414.934 723.707,430.065C727.989,432.349 732.271,433.634 736.554,433.919C746.832,434.49 755.967,427.639 763.961,413.364C765.96,409.938 767.744,406.512 769.314,403.086C770.884,399.66 772.098,396.805 772.954,394.522C773.811,392.238 774.81,389.026 775.952,384.886C777.094,380.747 777.95,377.82 778.521,376.107C779.092,374.394 779.949,370.897 781.091,365.615C782.233,360.334 783.089,356.694 783.66,354.695C784.231,351.555 785.873,349.128 788.585,347.415C791.297,345.702 794.223,345.203 797.364,345.916C800.504,346.63 802.931,348.343 804.644,351.055C806.357,353.768 806.785,356.694 805.928,359.834C805.643,361.547 804.858,365.116 803.573,370.54C802.288,375.965 801.432,379.676 801.004,381.674C800.575,383.673 799.719,386.956 798.434,391.524C797.15,396.092 795.936,399.803 794.794,402.658C793.652,405.513 792.153,408.939 790.298,412.936C788.442,416.933 786.515,420.787 784.517,424.498C771.669,447.052 755.254,457.901 735.269,457.044C726.133,456.473 716.998,453.333 707.862,447.623C694.158,458.186 678.028,461.469 659.471,457.473C640.057,453.761 627.638,442.199 622.214,422.785C618.217,407.369 619.216,389.525 625.212,369.255C630.922,350.413 639.629,333.712 651.334,319.152C664.467,302.878 678.456,293.457 693.302,290.888C697.584,290.317 701.153,291.744 704.008,295.17Z" style="fill:rgb(254,47,47);fill-rule:nonzero;"/>
        <path d="M843.613,320.865C842.471,321.436 840.901,322.577 838.903,324.29C833.478,328.573 827.483,336.138 820.917,346.987C815.492,356.123 810.354,365.544 805.5,375.251C800.932,385.243 798.077,392.095 796.935,395.806C796.364,397.234 795.793,399.375 795.223,402.23C793.224,414.221 791.083,425.926 788.799,437.345C788.799,438.487 788.656,439.344 788.371,439.915C788.371,441.057 788.085,442.199 787.514,443.341C786.943,444.197 786.229,445.054 785.373,445.91C781.376,449.907 776.951,450.764 772.098,448.48C768.957,447.052 766.959,444.625 766.102,441.2C765.817,440.629 765.674,439.915 765.674,439.058L765.674,436.917L765.674,434.776C765.96,432.207 766.673,428.067 767.815,422.357C769.528,412.65 771.098,404.514 772.526,397.947C776.237,372.824 778.949,347.273 780.662,321.293C780.948,318.152 782.304,315.512 784.731,313.37C787.157,311.229 789.941,310.301 793.081,310.587C796.222,310.872 798.863,312.228 801.004,314.655C803.145,317.082 804.073,319.865 803.787,323.006C803.502,326.146 803.359,329.144 803.359,331.999C810.496,320.579 817.205,312.157 823.486,306.733C835.762,296.169 846.897,294.599 856.889,302.022C862.028,305.733 865.596,311.586 867.595,319.58C869.022,325.004 869.879,331.856 870.164,340.135C870.164,345.274 869.95,353.696 869.522,365.401C869.094,377.107 868.88,384.101 868.88,386.385C868.594,403.8 869.879,416.219 872.734,423.642C873.876,427.068 875.374,429.423 877.23,430.708C879.086,431.992 881.869,432.492 885.581,432.207C891.291,431.636 895.573,430.208 898.428,427.924C900.426,425.926 903.71,421.358 908.277,414.221C914.558,404.514 920.554,392.523 926.263,378.248L928.833,370.968L928.833,370.112L929.261,366.686C929.547,366.401 929.761,366.044 929.904,365.615C930.046,365.187 930.118,364.83 930.118,364.545L931.831,361.547L940.395,340.992C941.823,338.137 943.964,336.138 946.819,334.996C949.674,333.854 952.6,333.926 955.598,335.211C958.596,336.495 960.665,338.565 961.807,341.42C962.949,344.275 962.949,347.273 961.807,350.413L956.668,361.975L956.668,362.832C956.097,364.83 953.1,372.824 947.675,386.813C941.395,402.515 934.828,415.933 927.976,427.068C922.267,435.918 917.413,442.056 913.416,445.482C906.85,450.906 898.143,454.189 887.294,455.331C878.158,456.188 870.307,454.332 863.741,449.764C858.031,445.767 853.748,439.772 850.894,431.778C847.182,421.786 845.469,406.512 845.755,385.957C846.04,383.387 846.326,376.536 846.611,365.401C846.897,354.267 847.039,345.988 847.039,340.563C846.754,333.997 846.183,329.001 845.326,325.575C844.755,323.291 844.184,321.721 843.613,320.865Z" style="fill:rgb(254,47,47);fill-rule:nonzero;"/>
        <path d="M968.659,312.3C968.374,314.584 966.946,323.434 964.377,338.851C961.807,353.125 959.952,365.687 958.81,376.536C957.097,390.81 956.383,402.087 956.668,410.366C957.239,419.502 958.381,425.069 960.094,427.068C961.807,429.066 963.235,430.208 964.377,430.494C965.233,430.494 966.518,429.923 968.231,428.781C973.655,424.784 979.793,416.219 986.645,403.086C993.211,390.239 1001.63,368.97 1011.91,339.279C1013.05,336.424 1015.05,334.283 1017.91,332.855C1020.76,331.428 1023.69,331.214 1026.68,332.213C1029.68,333.212 1031.9,335.139 1033.32,337.994C1034.75,340.849 1035.04,343.847 1034.18,346.987C1023.33,377.82 1014.34,400.089 1007.2,413.792C998.636,430.065 990.214,441.2 981.935,447.195C975.368,452.048 968.802,454.047 962.236,453.19C955.098,452.619 948.675,449.051 942.965,442.484C937.54,436.203 934.4,425.926 933.544,411.651C933.258,401.659 933.972,388.954 935.685,373.538C936.827,363.831 938.682,351.269 941.252,335.853C943.821,320.436 945.249,311.729 945.534,309.73C946.105,306.304 947.604,303.664 950.031,301.808C952.457,299.952 955.312,299.238 958.596,299.667C961.879,300.095 964.448,301.522 966.304,303.949C968.16,306.376 968.945,309.159 968.659,312.3ZM971.229,240.784C973.512,243.068 974.654,245.78 974.654,248.92C974.654,252.061 973.512,254.773 971.229,257.057C968.945,259.341 966.232,260.483 963.092,260.483C959.952,260.483 957.239,259.341 954.955,257.057C952.672,254.773 951.53,252.061 951.53,248.92C951.53,245.78 952.672,243.068 954.955,240.784C957.239,238.5 959.952,237.358 963.092,237.358C966.232,237.358 968.945,238.5 971.229,240.784Z" style="fill:rgb(254,47,47);fill-rule:nonzero;"/>
        <path d="M1031.61,280.182C1032.47,279.04 1033.61,277.327 1035.04,275.043C1037.61,270.761 1040.75,263.837 1044.46,254.273C1048.17,244.709 1051.31,235.074 1053.88,225.367C1056.73,214.519 1057.88,205.811 1057.3,199.245C1057.02,194.391 1055.88,191.394 1053.88,190.252C1049.88,188.539 1046.03,192.964 1042.32,203.527C1038.89,213.519 1036.46,225.225 1035.04,238.643C1033.61,251.775 1032.47,265.622 1031.61,280.182ZM1028.18,362.404C1027.9,368.399 1027.76,374.823 1027.76,381.674L1028.18,381.674C1042.46,379.961 1056.45,374.394 1070.15,364.973C1084.43,355.266 1090.99,345.274 1089.85,334.996C1089.28,330.429 1087.57,327.003 1084.71,324.719C1076.15,317.867 1065.73,319.152 1053.45,328.573C1042.03,337.709 1033.61,348.986 1028.18,362.404ZM1041.03,402.658C1058.73,420.359 1076.86,427.068 1095.42,422.785C1105.69,420.216 1116.69,407.511 1128.39,384.672C1136.96,367.257 1144.09,348.415 1149.8,328.145C1150.66,325.004 1152.44,322.649 1155.16,321.079C1157.87,319.508 1160.8,319.152 1163.94,320.008C1167.08,320.865 1169.43,322.649 1171,325.361C1172.57,328.073 1172.93,330.999 1172.07,334.14C1166.08,356.123 1158.37,376.393 1148.95,394.95C1133.82,424.355 1117.69,441.057 1100.56,445.054C1075.15,451.049 1050.88,443.341 1027.76,421.929L1027.76,434.348C1027.76,437.488 1026.61,440.2 1024.33,442.484C1022.05,444.768 1019.33,445.91 1016.19,445.91C1013.05,445.91 1010.34,444.768 1008.06,442.484C1005.77,440.2 1004.63,437.488 1004.63,434.348C1004.63,400.945 1004.7,377.677 1004.85,364.545C1004.99,351.412 1005.7,331.785 1006.99,305.662C1008.27,279.539 1010.34,256.058 1013.2,235.217C1015.48,219.515 1019.33,205.668 1024.76,193.678C1029.04,184.542 1034.82,177.119 1042.1,171.409C1049.38,165.699 1058.16,164.843 1068.44,168.84C1080.71,173.122 1087.42,182.543 1088.57,197.104C1089.42,206.81 1087.57,218.658 1083,232.647C1079.29,243.496 1074.58,254.345 1068.87,265.194C1063.16,276.042 1058.16,284.179 1053.88,289.603C1049.03,295.598 1044.74,299.738 1041.03,302.022C1039.32,303.164 1035.61,304.877 1029.9,307.161L1029.04,319.58C1032.47,316.154 1035.89,313.156 1039.32,310.587C1045.03,306.019 1050.95,302.522 1057.09,300.095C1063.23,297.668 1070.08,296.812 1077.65,297.526C1085.21,298.239 1092.42,301.308 1099.27,306.733C1107.27,313.013 1111.83,321.578 1112.98,332.427C1114.97,351.84 1104.98,369.113 1083,384.244C1070.15,392.809 1056.16,398.947 1041.03,402.658Z" style="fill:rgb(254,47,47);fill-rule:nonzero;"/>
        <path d="M1235.02,326.003C1235.31,326.003 1235.59,326.146 1235.88,326.432C1238.16,328.716 1239.45,331.57 1239.73,334.996C1240.02,337.566 1239.59,340.563 1238.45,343.989C1238.45,344.56 1237.74,346.273 1236.31,349.128L1235.88,351.269C1234.17,360.405 1233.31,365.116 1233.31,365.401C1232.74,370.255 1232.31,375.108 1232.03,379.961C1231.45,385.386 1231.17,388.526 1231.17,389.383C1231.17,400.802 1232.31,409.938 1234.6,416.79C1237.74,424.498 1242.45,429.209 1248.73,430.922C1254.44,432.349 1259.72,430.922 1264.57,426.639C1269.71,422.072 1274.85,414.221 1279.99,403.086C1283.7,394.807 1287.55,383.816 1291.55,370.112C1296.98,352.982 1299.97,343.704 1300.54,342.276C1301.69,339.136 1303.68,336.923 1306.54,335.639C1309.39,334.354 1312.32,334.283 1315.32,335.425C1318.32,336.567 1320.46,338.565 1321.74,341.42C1323.03,344.275 1323.1,347.13 1321.96,349.985C1321.67,351.127 1318.96,360.12 1313.82,376.964C1309.54,391.238 1305.26,403.229 1300.97,412.936C1294.69,426.925 1287.55,437.345 1279.56,444.197C1268.43,453.904 1256.15,456.902 1242.73,453.19C1228.46,449.193 1218.61,439.629 1213.18,424.498C1212.33,422.5 1211.61,420.216 1211.04,417.646C1208.76,421.643 1206.33,425.212 1203.76,428.352C1194.91,440.343 1185.63,447.766 1175.93,450.621C1162.51,454.618 1150.38,450.193 1139.53,437.345C1131.53,427.924 1127.96,413.507 1128.82,394.093C1129.68,377.535 1133.53,360.691 1140.38,343.561C1147.81,325.004 1157.08,311.301 1168.22,302.45C1183.35,291.031 1199.05,289.746 1215.33,298.596C1224.46,304.02 1230.31,309.588 1232.88,315.297C1233.74,317.867 1234.45,321.007 1235.02,324.719L1235.02,326.003ZM1213.18,338.422C1212.9,336.424 1212.47,332.855 1211.9,327.716C1211.61,325.718 1211.33,324.433 1211.04,323.862C1211.33,323.291 1209.04,321.721 1204.19,319.152C1196.77,314.869 1189.49,315.44 1182.35,320.865C1174.36,327.145 1167.51,337.566 1161.8,352.126C1155.8,366.401 1152.52,380.818 1151.94,395.378C1151.37,408.796 1153.23,417.932 1157.51,422.785C1161.8,427.639 1165.79,429.494 1169.5,428.352C1174.07,426.925 1179.35,422.214 1185.35,414.221C1190.77,407.083 1195.77,398.518 1200.34,388.526C1204.9,378.819 1208.04,370.968 1209.76,364.973C1210.04,363.831 1210.33,362.832 1210.61,361.975L1210.61,358.978C1211.47,351.555 1212.33,345.56 1213.18,340.992C1213.18,340.135 1213.33,339.422 1213.61,338.851C1213.61,338.565 1213.47,338.422 1213.18,338.422Z" style="fill:rgb(254,47,47);fill-rule:nonzero;"/>
    </g>
</svg>
